<?xml version="1.0" standalone="no"?>
<!DOCTYPE svg PUBLIC "-//W3C//DTD SVG 20010904//EN"
 "http://www.w3.org/TR/2001/REC-SVG-20010904/DTD/svg10.dtd">
<svg version="1.0" xmlns="http://www.w3.org/2000/svg"
 width="512.000000pt" height="512.000000pt" viewBox="0 0 512.000000 512.000000"
 preserveAspectRatio="xMidYMid meet">

<g transform="translate(0.000000,512.000000) scale(0.100000,-0.100000)"
fill="#000000" stroke="none">
<path d="M3780 4980 c-12 -7 -16 -38 -20 -137 l-5 -128 -272 -5 c-254 -5 -273
-6 -299 -26 -64 -47 -69 -62 -72 -225 l-3 -149 -42 0 c-50 0 -115 -31 -142
-68 -19 -25 -20 -47 -25 -361 l-5 -335 -335 -148 c-184 -81 -336 -148 -337
-148 -2 0 -3 298 -3 661 0 655 0 662 -21 699 -12 21 -38 47 -59 59 -38 21 -42
21 -820 21 -778 0 -782 0 -820 -21 -21 -12 -47 -38 -59 -59 l-21 -38 0 -1781
0 -1781 -143 0 c-127 0 -146 -2 -160 -18 -15 -17 -17 -60 -17 -418 0 -345 2
-403 16 -422 l15 -22 2429 0 2429 0 15 22 c14 19 16 77 16 424 0 376 -1 402
-18 417 -15 14 -41 17 -141 17 -88 0 -123 3 -126 13 -2 6 -9 696 -15 1532 -10
1289 -14 1528 -26 1573 -18 63 -75 130 -133 157 l-40 17 -3 154 c-3 166 -8
181 -72 228 -26 20 -43 21 -297 24 l-269 3 0 104 c0 102 -10 152 -33 167 -16
11 -49 10 -67 -2z m608 -402 c8 -8 12 -54 12 -140 l0 -128 -585 0 -585 0 0
128 c0 86 4 132 12 140 17 17 1129 17 1146 0z m-3758 -1788 l0 -1780 -45 0
-45 0 0 1768 c0 1362 3 1771 12 1780 7 7 27 12 45 12 l33 0 0 -1780z m210 0
l0 -1780 -45 0 -45 0 0 1780 0 1780 45 0 45 0 0 -1780z m1248 1768 c9 -9 12
-418 12 -1780 l0 -1768 -570 0 -570 0 0 1780 0 1780 558 0 c421 0 561 -3 570
-12z m2433 -391 c71 -47 66 51 78 -1402 6 -720 11 -1410 11 -1533 l0 -222
-207 2 -208 3 -5 327 c-5 310 -6 328 -26 354 -11 15 -33 37 -48 48 -26 20 -43
21 -312 24 l-284 3 0 838 c0 461 -3 947 -7 1081 -6 237 -7 243 -31 271 l-24
29 -148 0 -148 0 -27 -32 c-26 -31 -26 -32 -23 -173 l3 -141 -47 -21 -48 -22
0 289 c0 221 3 290 13 293 6 3 336 6 733 6 l721 1 34 -23z m-1131 -362 c0 -63
-1 -65 -25 -65 -14 0 -42 -7 -62 -15 -69 -29 -73 -25 -73 65 l0 80 80 0 80 0
0 -65z m-1 -199 c8 -10 10 -358 9 -1302 l-3 -1289 -585 0 -585 0 -3 1050 -2
1051 567 252 c313 138 573 251 579 252 6 0 17 -6 23 -14z m669 -1968 c9 -9 12
-94 12 -320 l0 -308 -275 0 -275 0 0 308 c0 226 3 311 12 320 17 17 509 17
526 0z m842 -878 l0 -130 -87 0 c-95 0 -123 -13 -123 -57 0 -47 32 -63 125
-63 l85 0 0 -130 0 -130 -2340 0 -2340 0 0 130 0 130 85 0 c72 0 88 3 105 20
24 24 25 48 4 78 -14 20 -23 22 -105 22 l-89 0 0 130 0 130 2340 0 2340 0 0
-130z"/>
<path d="M1119 4431 l-29 -29 0 -142 0 -142 29 -29 29 -29 131 0 c200 0 211
10 211 200 0 128 -11 169 -49 190 -11 5 -81 10 -156 10 l-137 0 -29 -29z m251
-171 l0 -80 -80 0 -80 0 0 80 0 80 80 0 80 0 0 -80z"/>
<path d="M1654 4442 c-38 -30 -44 -57 -44 -181 0 -191 11 -201 210 -201 l132
0 29 29 29 29 0 142 0 142 -29 29 -29 29 -139 0 c-116 0 -141 -3 -159 -18z
m236 -182 l0 -80 -80 0 -80 0 0 80 0 80 80 0 80 0 0 -80z"/>
<path d="M1138 3875 c-15 -9 -32 -24 -38 -35 -5 -10 -10 -81 -10 -158 0 -135
1 -140 25 -164 14 -14 39 -28 56 -32 59 -11 218 -7 253 8 59 25 66 45 66 193
0 132 0 133 -29 165 l-29 33 -134 3 c-104 1 -139 -1 -160 -13z m232 -190 l0
-85 -80 0 -80 0 0 85 0 85 80 0 80 0 0 -85z"/>
<path d="M1674 3880 c-12 -4 -31 -21 -43 -36 -19 -24 -21 -39 -21 -153 0 -80
5 -135 13 -151 21 -43 71 -60 178 -60 122 0 153 6 184 38 24 24 25 29 25 164
0 77 -5 148 -10 159 -21 38 -62 49 -187 48 -65 0 -128 -4 -139 -9z m216 -195
l0 -86 -77 3 -78 3 -3 83 -3 82 81 0 80 0 0 -85z"/>
<path d="M1119 3281 l-29 -29 0 -141 c0 -133 1 -141 24 -168 24 -28 26 -28
156 -31 212 -6 223 6 218 215 -3 134 -3 135 -31 159 -27 23 -35 24 -168 24
l-141 0 -29 -29z m251 -171 l0 -80 -80 0 -80 0 0 80 0 80 80 0 80 0 0 -80z"/>
<path d="M1657 3299 c-37 -22 -47 -63 -47 -195 l0 -126 35 -35 35 -35 141 4
c140 3 141 3 165 31 23 27 24 34 24 172 l0 143 -31 26 c-30 25 -35 26 -167 26
-75 0 -145 -5 -155 -11z m233 -189 l0 -80 -80 0 -80 0 0 80 0 80 80 0 80 0 0
-80z"/>
<path d="M1138 2724 c-15 -8 -32 -23 -38 -34 -5 -10 -10 -80 -10 -155 l0 -137
29 -29 29 -29 141 0 c133 0 141 1 168 24 28 24 28 26 31 156 6 208 -6 220
-200 220 -89 -1 -131 -5 -150 -16z m232 -184 l0 -80 -80 0 -80 0 0 80 0 80 80
0 80 0 0 -80z"/>
<path d="M1645 2707 l-35 -35 0 -126 c0 -134 10 -175 49 -196 11 -5 82 -10
158 -10 l139 0 27 28 c27 28 27 30 27 169 0 135 -1 143 -24 170 -24 28 -25 28
-165 31 l-141 4 -35 -35z m245 -167 l0 -80 -80 0 -80 0 0 80 0 80 80 0 80 0 0
-80z"/>
<path d="M1165 2163 c-11 -3 -32 -17 -47 -31 -28 -26 -28 -26 -28 -167 0 -201
8 -209 215 -203 l127 3 29 33 c29 32 29 32 29 166 0 152 -10 177 -78 196 -37
10 -209 12 -247 3z m205 -198 l0 -85 -80 0 -80 0 0 85 0 85 80 0 80 0 0 -85z"/>
<path d="M1684 2159 c-62 -18 -69 -36 -72 -189 l-3 -138 29 -34 30 -33 127 -3
c207 -6 215 2 215 204 0 138 -1 142 -25 166 -14 14 -39 28 -56 32 -45 9 -209
6 -245 -5z m206 -194 l0 -85 -80 0 -80 0 0 78 c0 43 3 82 7 85 3 4 39 7 80 7
l73 0 0 -85z"/>
<path d="M1119 1561 l-29 -29 0 -142 0 -142 29 -29 29 -29 137 0 c75 0 145 5
156 10 38 21 49 62 49 190 0 190 -11 200 -211 200 l-131 0 -29 -29z m251 -171
l0 -80 -80 0 -80 0 0 80 0 80 80 0 80 0 0 -80z"/>
<path d="M1661 1576 c-42 -23 -50 -52 -51 -184 0 -130 10 -171 49 -192 11 -5
81 -10 156 -10 l137 0 29 29 29 29 0 142 0 142 -29 29 -29 29 -134 0 c-91 -1
-141 -5 -157 -14z m229 -186 l0 -80 -80 0 -80 0 0 80 0 80 80 0 80 0 0 -80z"/>
<path d="M3633 3966 c-28 -24 -28 -25 -31 -165 l-4 -141 35 -35 35 -35 126 0
c134 0 175 10 196 49 5 11 10 82 10 157 0 136 0 138 -27 166 l-27 28 -142 0
c-137 0 -144 -1 -171 -24z m247 -176 l0 -80 -80 0 -80 0 0 80 0 80 80 0 80 0
0 -80z"/>
<path d="M4125 3966 c-31 -31 -38 -71 -33 -205 3 -105 4 -112 31 -138 27 -27
30 -28 160 -31 150 -3 172 4 199 58 14 27 18 60 18 143 0 116 -13 167 -48 186
-12 6 -80 11 -162 11 -135 0 -142 -1 -165 -24z m255 -176 l0 -80 -85 0 -85 0
0 80 0 80 85 0 85 0 0 -80z"/>
<path d="M3651 3406 c-42 -23 -50 -52 -51 -184 0 -130 10 -171 49 -192 11 -5
81 -10 156 -10 l137 0 29 29 29 29 0 142 0 142 -29 29 -29 29 -134 0 c-91 -1
-141 -5 -157 -14z m229 -186 l0 -80 -80 0 -80 0 0 80 0 80 80 0 80 0 0 -80z"/>
<path d="M4128 3391 l-33 -29 -3 -112 c-5 -138 2 -175 35 -206 25 -23 33 -24
159 -24 78 0 143 5 158 11 46 21 58 66 54 206 l-3 125 -33 29 c-32 29 -32 29
-167 29 -135 0 -135 0 -167 -29z m252 -171 l0 -80 -85 0 -85 0 0 80 0 80 85 0
85 0 0 -80z"/>
<path d="M3660 2832 c-52 -26 -60 -50 -60 -194 0 -127 0 -128 29 -160 l29 -33
112 -3 c135 -5 175 2 206 33 23 23 24 30 24 165 0 200 -10 210 -199 210 -81 0
-114 -4 -141 -18z m220 -187 l0 -85 -80 0 -80 0 0 85 0 85 80 0 80 0 0 -85z"/>
<path d="M4153 2835 c-51 -22 -63 -58 -63 -190 0 -186 19 -205 205 -205 184 0
205 21 205 205 0 183 -23 205 -207 205 -69 -1 -119 -6 -140 -15z m222 -190 l0
-80 -82 -3 -83 -3 0 79 c0 43 3 82 7 86 4 4 41 5 83 4 l75 -3 0 -80z"/>
<path d="M3644 2252 c-38 -30 -44 -57 -44 -181 0 -191 11 -201 210 -201 l132
0 29 29 29 29 0 142 0 142 -29 29 -29 29 -139 0 c-116 0 -141 -3 -159 -18z
m236 -182 l0 -80 -80 0 -80 0 0 80 0 80 80 0 80 0 0 -80z"/>
<path d="M4143 2258 c-43 -21 -55 -68 -51 -205 l3 -125 33 -29 c32 -29 32 -29
167 -29 135 0 135 0 167 29 l33 29 0 142 0 142 -33 29 -32 29 -133 -1 c-72 0
-142 -5 -154 -11z m237 -188 l0 -80 -85 0 -85 0 0 80 0 80 85 0 85 0 0 -80z"/>
<path d="M2382 2974 c-27 -19 -29 -64 -4 -87 17 -15 61 -17 430 -17 l411 0 15
22 c21 30 20 54 -4 78 -19 19 -33 20 -423 20 -348 0 -406 -2 -425 -16z"/>
<path d="M2377 2542 c-22 -24 -21 -65 1 -85 17 -15 61 -17 425 -17 394 0 408
1 427 20 11 11 20 29 20 40 0 11 -9 29 -20 40 -19 19 -33 20 -428 20 -383 0
-410 -1 -425 -18z"/>
<path d="M2376 2114 c-24 -23 -20 -70 6 -88 19 -14 77 -16 425 -16 390 0 404
1 423 20 24 24 25 48 4 78 l-15 22 -414 0 c-363 0 -416 -2 -429 -16z"/>
<path d="M2371 1686 c-7 -8 -11 -30 -9 -48 5 -57 11 -58 444 -58 381 0 392 1
418 21 30 24 34 59 8 82 -17 15 -61 17 -434 17 -349 0 -417 -2 -427 -14z"/>
<path d="M2390 1267 c-18 -9 -26 -22 -28 -45 -6 -64 -22 -62 438 -62 391 0
418 1 433 18 24 27 21 58 -9 81 -26 20 -37 21 -418 21 -294 0 -397 -3 -416
-13z"/>
<path d="M727 612 c-24 -26 -21 -68 5 -86 19 -13 59 -16 239 -16 l218 0 20 27
c23 28 20 59 -7 81 -12 9 -75 12 -237 12 -202 0 -223 -2 -238 -18z"/>
<path d="M1526 617 c-26 -19 -24 -67 4 -89 20 -16 45 -18 234 -18 234 0 256 5
256 59 0 58 -14 61 -256 61 -167 0 -225 -3 -238 -13z"/>
<path d="M2316 608 c-21 -30 -20 -54 4 -78 19 -19 33 -20 240 -20 207 0 221 1
240 20 24 24 25 48 4 78 -15 22 -19 22 -244 22 -225 0 -229 0 -244 -22z"/>
<path d="M3117 612 c-24 -26 -21 -68 5 -86 19 -13 58 -16 231 -16 128 0 216 4
228 11 39 20 41 77 5 101 -6 4 -110 8 -232 8 -201 0 -222 -2 -237 -18z"/>
<path d="M3918 618 c-27 -22 -30 -53 -7 -81 l20 -27 218 0 c240 0 261 5 261
59 0 58 -14 61 -256 61 -161 0 -224 -3 -236 -12z"/>
<path d="M2301 4194 c-51 -65 9 -162 74 -120 21 14 25 24 25 65 0 78 -57 109
-99 55z"/>
<path d="M2302 3988 c-14 -18 -14 -29 -13 -220 1 -183 6 -198 61 -198 55 0 62
26 58 223 -2 129 -7 178 -17 190 -16 20 -74 23 -89 5z"/>
</g>
</svg>
