<?xml version="1.0" standalone="no"?>
<!DOCTYPE svg PUBLIC "-//W3C//DTD SVG 20010904//EN"
 "http://www.w3.org/TR/2001/REC-SVG-20010904/DTD/svg10.dtd">
<svg version="1.0" xmlns="http://www.w3.org/2000/svg"
 width="512.000000pt" height="512.000000pt" viewBox="0 0 512.000000 512.000000"
 preserveAspectRatio="xMidYMid meet">

<g transform="translate(0.000000,512.000000) scale(0.100000,-0.100000)"
fill="#000000" stroke="none">
<path d="M1506 5098 c-20 -28 -21 -108 -2 -134 14 -19 38 -19 1039 -22 999 -2
1025 -2 1048 17 20 16 24 28 23 76 0 44 -4 61 -19 71 -16 12 -189 14 -1046 14
l-1028 0 -15 -22z"/>
<path d="M1297 4822 c-16 -17 -17 -191 -17 -2300 l0 -2282 -293 0 c-215 0
-296 -3 -305 -12 -19 -19 -16 -193 4 -212 14 -14 198 -16 1874 -16 1676 0
1860 2 1874 16 21 21 23 196 3 213 -9 7 -111 12 -308 13 l-294 3 -2 2285 c-3
2134 -4 2286 -20 2298 -13 9 -281 12 -1258 12 -1190 0 -1243 -1 -1258 -18z
m463 -152 c18 -18 20 -33 20 -143 0 -173 6 -167 -169 -167 -93 0 -141 4 -149
12 -8 8 -12 56 -12 149 0 112 3 141 16 153 12 13 41 16 145 16 116 0 131 -2
149 -20z m472 3 c16 -14 18 -33 18 -149 0 -107 -3 -136 -16 -148 -12 -13 -41
-16 -149 -16 -108 0 -137 3 -149 16 -13 12 -16 41 -16 146 0 175 -6 168 163
168 107 0 134 -3 149 -17z m472 1 c13 -12 16 -41 16 -153 0 -93 -4 -141 -12
-149 -8 -8 -55 -12 -147 -12 -178 0 -171 -6 -171 162 0 172 -4 168 169 168
104 0 133 -3 145 -16z m472 2 c17 -13 19 -27 19 -149 0 -99 -4 -138 -14 -150
-11 -14 -35 -17 -150 -17 -93 0 -141 4 -149 12 -8 8 -12 57 -12 155 0 125 2
143 18 152 28 17 264 14 288 -3z m478 -8 c12 -17 16 -50 16 -147 0 -167 6
-161 -166 -161 -107 0 -136 3 -148 16 -13 12 -16 41 -16 146 0 175 -7 168 166
168 126 0 134 -1 148 -22z m-1888 -463 c13 -19 15 -47 12 -149 -2 -85 -7 -129
-16 -138 -9 -9 -53 -14 -138 -16 -179 -5 -174 -10 -174 166 0 94 4 142 12 150
8 8 56 12 150 12 135 0 138 0 154 -25z m474 6 c5 -11 10 -78 10 -150 0 -165 4
-161 -165 -161 -170 0 -165 -5 -165 169 0 93 4 141 12 149 8 8 57 12 155 12
130 0 143 -2 153 -19z m468 7 c8 -8 12 -56 12 -150 0 -176 5 -171 -175 -166
-161 4 -155 -2 -155 169 0 103 3 131 16 143 12 13 41 16 153 16 93 0 141 -4
149 -12z m476 -10 c12 -17 16 -50 16 -141 0 -112 -1 -119 -25 -142 -23 -24
-30 -25 -142 -25 -168 0 -163 -5 -163 169 0 93 4 141 12 149 8 8 56 12 149 12
131 0 139 -1 153 -22z m470 6 c13 -12 16 -40 16 -143 0 -171 6 -165 -155 -169
-180 -5 -175 -10 -175 166 0 94 4 142 12 150 8 8 56 12 149 12 112 0 141 -3
153 -16z m-1894 -454 c18 -18 20 -33 20 -143 0 -173 6 -167 -169 -167 -93 0
-141 4 -149 12 -8 8 -12 56 -12 149 0 112 3 141 16 153 12 13 41 16 145 16
116 0 131 -2 149 -20z m472 3 c16 -14 18 -33 18 -149 0 -107 -3 -136 -16 -148
-12 -13 -41 -16 -149 -16 -108 0 -137 3 -149 16 -13 12 -16 41 -16 146 0 175
-6 168 163 168 107 0 134 -3 149 -17z m472 1 c13 -12 16 -41 16 -154 0 -127
-2 -140 -19 -150 -11 -5 -78 -10 -150 -10 -165 0 -161 -4 -161 165 0 170 -5
165 165 165 108 0 137 -3 149 -16z m472 2 c17 -13 19 -27 19 -149 0 -99 -4
-138 -14 -150 -11 -14 -35 -17 -150 -17 -93 0 -141 4 -149 12 -8 8 -12 57 -12
155 0 125 2 143 18 152 28 17 264 14 288 -3z m478 -8 c12 -17 16 -50 16 -147
0 -167 6 -161 -166 -161 -107 0 -136 3 -148 16 -13 12 -16 41 -16 146 0 175
-7 168 166 168 126 0 134 -1 148 -22z m-1888 -463 c13 -19 15 -47 12 -149 -2
-85 -7 -129 -16 -138 -9 -9 -53 -14 -138 -16 -179 -5 -174 -10 -174 166 0 94
4 142 12 150 8 8 56 12 150 12 135 0 138 0 154 -25z m474 6 c5 -11 10 -78 10
-149 0 -108 -3 -132 -17 -143 -12 -10 -51 -14 -148 -14 -97 0 -136 4 -148 14
-14 11 -17 35 -17 150 0 93 4 141 12 149 8 8 57 12 155 12 130 0 143 -2 153
-19z m468 7 c8 -8 12 -56 12 -150 0 -176 5 -171 -175 -166 -161 4 -155 -2
-155 169 0 103 3 131 16 143 12 13 41 16 153 16 93 0 141 -4 149 -12z m476
-10 c12 -17 16 -50 16 -141 0 -112 -1 -119 -25 -142 -23 -24 -30 -25 -142 -25
-168 0 -163 -5 -163 169 0 93 4 141 12 149 8 8 56 12 149 12 131 0 139 -1 153
-22z m470 6 c13 -12 16 -40 16 -143 0 -171 6 -165 -155 -169 -180 -5 -175 -10
-175 166 0 94 4 142 12 150 8 8 56 12 149 12 112 0 141 -3 153 -16z m-1890
-456 c12 -17 16 -50 16 -143 0 -169 4 -165 -161 -165 -72 0 -139 5 -150 10
-17 10 -19 23 -19 150 0 113 3 142 16 154 12 13 41 16 149 16 127 0 135 -1
149 -22z m468 5 c16 -14 18 -33 18 -146 0 -174 7 -167 -166 -167 -107 0 -136
3 -148 16 -13 12 -16 41 -16 146 0 175 -6 168 163 168 107 0 134 -3 149 -17z
m472 1 c13 -12 16 -41 16 -149 0 -108 -3 -137 -16 -149 -12 -13 -41 -16 -149
-16 -170 0 -165 -5 -165 165 0 170 -5 165 165 165 108 0 137 -3 149 -16z m472
2 c17 -13 19 -27 19 -149 0 -99 -4 -138 -14 -150 -11 -14 -35 -17 -150 -17
-93 0 -141 4 -149 12 -8 8 -12 57 -12 155 0 125 2 143 18 152 28 17 264 14
288 -3z m478 -8 c12 -17 16 -50 16 -147 0 -167 6 -161 -166 -161 -107 0 -136
3 -148 16 -13 12 -16 41 -16 149 0 108 3 137 16 149 12 13 41 16 149 16 127 0
135 -1 149 -22z m-1888 -463 c13 -19 15 -47 12 -149 -2 -85 -7 -129 -16 -138
-9 -9 -53 -14 -138 -16 -179 -5 -174 -10 -174 166 0 94 4 142 12 150 8 8 56
12 150 12 135 0 138 0 154 -25z m474 6 c16 -31 13 -263 -4 -287 -13 -17 -27
-19 -149 -19 -99 0 -138 4 -150 14 -14 11 -17 35 -17 150 0 93 4 141 12 149 8
8 57 12 155 12 130 0 143 -2 153 -19z m468 7 c8 -8 12 -56 12 -150 0 -176 5
-171 -175 -166 -161 4 -155 -2 -155 169 0 103 3 131 16 143 12 13 41 16 153
16 93 0 141 -4 149 -12z m476 -10 c12 -17 16 -50 16 -141 0 -112 -1 -119 -25
-142 -23 -24 -30 -25 -142 -25 -168 0 -163 -5 -163 169 0 93 4 141 12 149 8 8
56 12 149 12 131 0 139 -1 153 -22z m476 3 c16 -31 13 -263 -4 -287 -13 -17
-27 -19 -149 -19 -99 0 -138 4 -150 14 -14 11 -17 35 -17 150 0 93 4 141 12
149 8 8 57 12 155 12 130 0 143 -2 153 -19z m-1896 -453 c12 -17 16 -50 16
-143 0 -169 4 -165 -161 -165 -72 0 -139 5 -150 10 -17 10 -19 23 -19 155 0
127 2 145 18 154 9 6 76 11 149 11 125 0 133 -1 147 -22z m468 5 c16 -14 18
-33 18 -146 0 -174 7 -167 -166 -167 -107 0 -136 3 -148 16 -13 12 -16 41 -16
146 0 175 -6 168 163 168 107 0 134 -3 149 -17z m472 1 c13 -12 16 -41 16
-149 0 -108 -3 -137 -16 -149 -12 -13 -41 -16 -149 -16 -170 0 -165 -5 -165
165 0 170 -5 165 165 165 108 0 137 -3 149 -16z m472 2 c17 -13 19 -27 19
-149 0 -99 -4 -138 -14 -150 -11 -14 -35 -17 -150 -17 -93 0 -141 4 -149 12
-8 8 -12 57 -12 155 0 125 2 143 18 152 28 17 264 14 288 -3z m478 -8 c12 -17
16 -50 16 -147 0 -167 6 -161 -166 -161 -107 0 -136 3 -148 16 -13 12 -16 41
-16 149 0 108 3 137 16 149 12 13 41 16 149 16 127 0 135 -1 149 -22z m-1910
-439 c32 -15 36 -33 36 -159 0 -129 -4 -145 -40 -160 -40 -17 -251 -10 -274 9
-14 12 -16 33 -14 155 3 139 3 141 28 153 32 16 230 17 264 2z m492 -13 c20
-28 20 -264 0 -292 -13 -17 -27 -19 -149 -19 -100 0 -138 4 -151 14 -14 12
-16 33 -14 155 4 174 -3 168 176 164 109 -3 125 -5 138 -22z m467 5 c25 -20
25 -282 0 -302 -12 -10 -51 -14 -150 -14 -170 0 -163 -7 -163 165 0 127 6 150
40 163 31 12 256 2 273 -12z m478 -10 c16 -20 19 -40 19 -143 0 -113 -1 -120
-25 -143 -23 -24 -30 -25 -143 -25 -168 0 -164 -5 -160 175 4 173 -2 167 171
163 111 -3 120 -5 138 -27z m475 5 c20 -28 20 -264 0 -292 -13 -17 -27 -19
-149 -19 -100 0 -138 4 -151 14 -14 12 -16 33 -14 155 4 174 -3 168 176 164
109 -3 125 -5 138 -22z m-1892 -458 c12 -17 16 -50 16 -143 0 -169 4 -165
-161 -165 -72 0 -139 5 -150 10 -17 10 -19 23 -19 155 0 127 2 145 18 154 9 6
76 11 149 11 125 0 133 -1 147 -22z m468 5 c16 -14 18 -33 18 -146 0 -173 6
-167 -163 -167 -173 0 -167 -6 -167 163 0 173 -6 167 163 167 107 0 134 -3
149 -17z m472 1 c13 -12 16 -41 16 -149 0 -108 -3 -137 -16 -149 -12 -13 -41
-16 -149 -16 -170 0 -165 -5 -165 165 0 170 -5 165 165 165 108 0 137 -3 149
-16z m477 -1 c10 -12 14 -51 14 -148 0 -97 -4 -136 -14 -148 -11 -14 -35 -17
-143 -17 -71 0 -138 5 -149 10 -17 10 -19 23 -19 155 0 127 2 145 18 154 9 6
76 11 148 11 110 0 134 -3 145 -17z m471 0 c16 -14 18 -33 18 -146 0 -174 7
-167 -166 -167 -107 0 -136 3 -148 16 -13 12 -16 41 -16 149 0 108 3 137 16
149 23 24 269 23 296 -1z m-1908 -444 c32 -15 36 -33 36 -159 0 -129 -4 -145
-40 -160 -40 -17 -251 -10 -274 9 -14 12 -16 33 -14 155 3 139 3 141 28 153
32 16 230 17 264 2z m1431 -14 c24 -23 25 -30 25 -143 0 -103 -3 -123 -19
-143 l-19 -24 -594 -2 c-465 -2 -598 0 -618 10 -25 13 -25 13 -25 157 0 144 0
144 25 157 19 10 159 13 613 13 l588 0 24 -25z m481 1 c20 -28 20 -264 0 -292
-13 -17 -27 -19 -149 -19 -100 0 -138 4 -151 14 -14 12 -16 33 -14 155 4 174
-3 168 176 164 109 -3 125 -5 138 -22z"/>
</g>
</svg>
